<svg xmlns="http://www.w3.org/2000/svg" width="62" height="300" viewBox="0 0 62 300"><path fill="#DE5959" d="M25.38 255.28h-7.03c-.04-3.16 1.15-5.79 3.57-7.88 2.38-2.09 5.52-3.13 9.43-3.13 2.5 0 4.63.43 6.41 1.28 1.78.86 3.2 2.09 4.25 3.71 1.05 1.62 1.58 3.34 1.58 5.14 0 .98-.17 1.94-.5 2.88-.34.94-.87 1.9-1.61 2.87-.44.59-1.47 1.56-3.11 2.92-1.53 1.32-2.478 2.26-2.87 2.79-.39.54-.728 1.25-1 2.14-.276.897-.45 2.13-.526 3.73H26.7v-1.14c0-2.19.44-4.19 1.32-6 .88-1.8 2.29-3.51 4.24-5.11 1.87-1.53 3.01-2.58 3.4-3.15.39-.563.58-1.26.58-2.06 0-1.04-.48-1.93-1.44-2.66-.96-.73-2.24-1.09-3.84-1.09-1.64 0-2.99.44-4.04 1.33-1.05.89-1.59 2.05-1.59 3.47h.01l.04-.04zm4.98 20.25c1.32 0 2.45.41 3.37 1.23.92.82 1.37 1.82 1.37 3.01 0 1.19-.46 2.19-1.38 3.03-.92.84-2.02 1.25-3.31 1.25s-2.38-.41-3.28-1.25c-.9-.83-1.35-1.84-1.35-3.02s.45-2.18 1.35-3 1.97-1.23 3.22-1.23l.01-.02zM31 29.81l-3.316-2.75-11.57 11.843H45.59L34.234 27.04 31 29.81zm4.89-4.026l11.003 11.438c.062-.22.107-.452.107-.694V16.755l-11.11 9.03zM15 16.71v19.818c0 .242.045.473.107.694l11.04-11.4L15 16.708v.002zm31-1.817H16l15 12.02 15-12.02zM44.395 75.59c-1.033.456-2.145.766-3.31.902 1.19-.71 2.103-1.832 2.535-3.166-1.115.655-2.35 1.132-3.662 1.39-1.054-1.112-2.55-1.81-4.21-1.81-3.188 0-5.77 2.564-5.77 5.726 0 .446.05.887.148 1.307-4.79-.24-9.042-2.522-11.887-5.98-.5.847-.785 1.83-.785 2.875 0 1.988 1.02 3.736 2.567 4.767-.945-.03-1.835-.286-2.612-.718v.075c0 2.772 1.99 5.083 4.627 5.612-.485.13-.994.2-1.52.2-.372 0-.733-.032-1.085-.103.733 2.273 2.865 3.93 5.39 3.978-1.975 1.533-4.46 2.45-7.162 2.45-.465 0-.925-.03-1.376-.084 2.55 1.626 5.584 2.573 8.84 2.573 10.612 0 16.413-8.725 16.413-16.286 0-.25-.008-.494-.018-.738 1.122-.813 2.1-1.817 2.876-2.97v-.002zm-.885 57.804l-30.133 11.622c-2.057.825-2.044 1.973-.375 2.483l7.516 2.346 2.875 8.815c.35.966.177 1.35 1.19 1.35.782 0 1.13-.356 1.564-.782l3.758-3.654 7.818 5.775c1.438.792 2.478.38 2.834-1.338l5.133-24.183c.525-2.106-.803-3.06-2.18-2.436zm-21.813 15.913l16.94-10.688c.846-.515 1.62-.24.984.326l-14.503 13.087-.564 6.024-2.856-8.75zM30.895 189.16c-9.728 0-17.613 7.804-17.613 17.43 0 8.19 5.71 15.057 13.403 16.924-.002-2.156-.008-6.254-.01-6.403-.032-.02-3.34 1.898-5.026-1.454-.205-.415-.614-1.8-1.64-2.574-.037-.03-.794-.413-.863-.788-.008-.053.05-.164.123-.19.078-.028 1.324-.535 2.713 1.21.42.582 1.364 2.823 4.674 1.438.088-.345.41-1.136 1.125-1.776-4.928-.583-6.986-2.024-7.685-6.194-.436-2.843.402-5.204 1.662-6.37-.192-.25-.82-2.326.156-4.523 1.06-.212 3.002.54 4.708 1.758 2.408-.86 6.325-1.068 8.548 0 .768-.628 3.513-2.098 4.69-1.756.347.872.845 2.986.155 4.526 1.534 1.563 1.968 3.58 1.69 6.06-.34 3.756-2.492 6.055-7.714 6.5.87.606 2.07 1.69 2.07 3.105 0 1.52.002 5.166 0 7.25 7.292-2.134 12.442-8.835 12.442-16.74.003-9.63-7.883-17.433-17.61-17.433z"/></svg>